<svg xmlns="http://www.w3.org/2000/svg" xmlns:xlink="http://www.w3.org/1999/xlink" version="1.1" id="Calque_1" style="enable-background:new 0 0 75 75" xml:space="preserve" alt="Konbini Logo "
     viewBox="6.75 6.66 65.5 61.69"><g><g><path style="fill:#FFC800" d="M57.39,41.64l-9.94-15.31L33.67,47.54h20.57c0.06,0,0.13,0,0.19,0C57.35,47.41,58.98,44.09,57.39,41.64z"></path><path
        style="fill:#1E32C8" d="M38.43,6.66l-17.02,0c-2.36,0-4.28,1.93-4.28,4.28v28.53L38.43,6.66z"></path><path style="fill:#FA1E14"
                                                                                                                 d="M53.44,6.66c-0.06,0-0.13,0-0.19,0H38.43L17.13,39.47v3.79c0,2.36,1.93,4.28,4.28,4.28h12.26l0,0l13.77-21.21 l8.94-13.77C57.98,10.11,56.36,6.79,53.44,6.66z"></path></g><g><path d="M70.86,54.24c0.62,0,1.08,0.47,1.08,1.08c0,0.62-0.47,1.08-1.08,1.08c-0.62,0-1.08-0.47-1.08-1.08 C69.78,54.7,70.24,54.24,70.86,54.24 M70.86,53.93c-0.8,0-1.39,0.61-1.39,1.39c0,0.78,0.59,1.39,1.39,1.39 c0.8,0,1.39-0.61,1.39-1.39C72.25,54.54,71.66,53.93,70.86,53.93L70.86,53.93z"></path>
    <path d="M22.79,57.54c-3.37,0-5.32,2.37-5.32,5.4c0,3.03,1.95,5.4,5.32,5.4c3.37,0,5.32-2.37,5.32-5.4 C28.11,59.9,26.15,57.54,22.79,57.54z M22.79,66.14c-1.66,0-2.62-1.48-2.62-3.2c0-1.72,0.96-3.2,2.62-3.2 c1.66,0,2.62,1.48,2.62,3.2C25.41,64.66,24.45,66.14,22.79,66.14z"></path>
    <path d="M35.01,57.54c-1.35,0-2.47,0.75-3.24,1.85V57.7h-2.58v10.47h2.58V64c0-2.76,1.14-4.26,2.39-4.26c0.87,0,1.5,0.48,1.5,1.72 v6.71h2.58v-7.48C38.23,58.6,36.88,57.54,35.01,57.54z"></path>
    <path d="M44.96,57.54c-1.06,0-2.08,0.54-2.54,1.12v-4.62h-2.58v14.14h2.58V67.1c0.29,0.54,1.25,1.25,2.54,1.25 c3.16,0,4.78-2.18,4.78-5.4S48.12,57.54,44.96,57.54z M44.61,66.14c-1.35,0-2.41-1.12-2.41-3.2c0-2.08,1.06-3.2,2.41-3.2 s2.43,1.12,2.43,3.2C47.04,65.02,45.96,66.14,44.61,66.14z"></path>
    <path d="M52.17,53.93c-0.8,0-1.39,0.61-1.39,1.39c0,0.78,0.59,1.39,1.39,1.39c0.8,0,1.39-0.61,1.39-1.39 C53.56,54.54,52.97,53.93,52.17,53.93z"></path>
    <rect x="50.88" y="57.7" width="2.58" height="10.47"></rect>
    <path d="M66.96,56.71c0.8,0,1.39-0.61,1.39-1.39c0-0.78-0.59-1.39-1.39-1.39c-0.8,0-1.39,0.61-1.39,1.39 C65.57,56.1,66.16,56.71,66.96,56.71z"></path>
    <rect x="65.67" y="57.7" width="2.58" height="10.47"></rect>
    <path d="M60.85,57.54c-1.35,0-2.47,0.75-3.24,1.85V57.7h-2.58v10.47h2.58V64c0-2.76,1.14-4.26,2.39-4.26c0.87,0,1.5,0.48,1.5,1.72 v6.71h2.58v-7.48C64.07,58.6,62.72,57.54,60.85,57.54z"></path>
    <polygon points="17.66,54.03 14.35,54.03 9.45,59.48 9.45,54.03 6.75,54.03 6.75,68.18 9.45,68.18 9.45,63.17 10.85,61.62  15.04,68.18 18.25,68.18 12.72,59.53   "></polygon>
    <g><path d="M71.08,55.35l0.39,0.64h-0.3l-0.38-0.61h-0.14v0.61h-0.26v-1.42h0.52c0.28,0,0.43,0.17,0.43,0.4 C71.34,55.16,71.25,55.3,71.08,55.35z M71.08,54.97c0-0.12-0.07-0.16-0.17-0.16h-0.26v0.32h0.26 C71.01,55.13,71.08,55.08,71.08,54.97z"></path></g></g></g></svg>