<svg xmlns="http://www.w3.org/2000/svg" xmlns:xlink="http://www.w3.org/1999/xlink" version="1.1" id="Layer_1" x="0px" y="0px" enable-background="new 0 0 720 340" xml:space="preserve"
     viewBox="221.57 117.07 275.25 108.79">
<path fill="#941F7F"
      d="M221.568,150.236c0-0.423,0.113-0.759,0.333-1.012c0.224-0.249,0.555-0.376,0.999-0.376h19.276  c1.385,0,2.692,0.19,3.92,0.573c1.225,0.383,2.352,0.911,3.378,1.584c1.023,0.674,1.951,1.478,2.777,2.417  c0.822,0.932,1.521,1.943,2.094,3.031c0.572,1.084,1.011,2.227,1.313,3.423c0.302,1.194,0.452,2.408,0.452,3.634  c0,1.812-0.329,3.58-0.979,5.311c-0.655,1.729-1.587,3.269-2.791,4.615c-1.207,1.346-2.656,2.439-4.343,3.271  c-1.693,0.837-3.562,1.266-5.613,1.284h-9.139v14.36c0,0.864-0.462,1.293-1.387,1.293H222.9c-0.405,0-0.726-0.105-0.967-0.312  c-0.242-0.213-0.365-0.541-0.365-0.981V150.236z M244.286,163.448c0-0.604-0.105-1.207-0.317-1.81  c-0.213-0.602-0.516-1.142-0.919-1.613c-0.402-0.472-0.891-0.859-1.463-1.162c-0.575-0.3-1.223-0.453-1.946-0.453h-6.395v10.076  h6.395c0.723,0,1.375-0.146,1.96-0.437c0.583-0.292,1.073-0.667,1.463-1.129c0.392-0.465,0.692-0.996,0.906-1.599  C244.181,164.716,244.286,164.094,244.286,163.448"/>
    <path fill="#941F7F"
          d="M273.97,150.025c0.018-0.119,0.083-0.249,0.195-0.392c0.11-0.141,0.249-0.271,0.408-0.392  c0.159-0.123,0.333-0.215,0.515-0.286c0.178-0.07,0.35-0.105,0.509-0.105h7.726c0.34,0,0.631,0.105,0.875,0.316  c0.24,0.212,0.419,0.397,0.54,0.56l0.753,1.718l15.839,40.846c0.162,0.403,0.129,0.727-0.092,0.98  c-0.218,0.25-0.601,0.377-1.145,0.377h-8.655c-0.466,0-0.822-0.085-1.071-0.255c-0.253-0.175-0.451-0.459-0.589-0.862  c-0.403-1.024-0.795-2.045-1.176-3.061c-0.385-1.016-0.768-2.033-1.149-3.062h-16.019c-0.381,1.029-0.768,2.047-1.16,3.062  s-0.779,2.036-1.162,3.061c-0.263,0.745-0.771,1.117-1.537,1.117h-8.9c-0.383,0-0.697-0.102-0.95-0.301  c-0.252-0.202-0.299-0.504-0.134-0.908L273.97,150.025z M279.461,162.937c-0.383,1.026-0.771,2.132-1.163,3.317  c-0.392,1.188-0.779,2.384-1.162,3.589c-0.379,1.209-0.767,2.399-1.159,3.576c-0.392,1.178-0.779,2.278-1.162,3.304h9.261  L279.461,162.937z"/>
    <path fill="#941F7F"
          d="M314.709,165.381l7.285-15.597c0.119-0.24,0.221-0.416,0.3-0.526c0.083-0.112,0.162-0.192,0.242-0.244  c0.08-0.049,0.167-0.079,0.255-0.089c0.092-0.009,0.197-0.032,0.318-0.074h11.613c0.144,0,0.259,0.047,0.35,0.136  c0.089,0.09,0.134,0.197,0.134,0.316c0,0.221-0.141,0.475-0.419,0.753l-14.3,25.31v16.866c0,0.942-0.462,1.415-1.385,1.415h-9.029  c-0.401,0-0.708-0.127-0.932-0.377c-0.22-0.254-0.331-0.598-0.331-1.038v-16.924l-14.268-25.252  c-0.261-0.26-0.392-0.511-0.392-0.753c0-0.119,0.042-0.226,0.121-0.316c0.081-0.089,0.19-0.136,0.332-0.136h11.615  c0.139,0.042,0.25,0.065,0.329,0.074c0.083,0.01,0.162,0.04,0.244,0.089c0.08,0.052,0.159,0.132,0.239,0.244  c0.083,0.11,0.193,0.287,0.333,0.526L314.709,165.381z"/>
    <path fill="#941F7F"
          d="M339.43,150.177c0-0.362,0.11-0.674,0.331-0.934c0.22-0.264,0.554-0.392,0.995-0.392h9.867  c0.278,0,0.572,0.07,0.874,0.208c0.302,0.144,0.562,0.385,0.784,0.726c2.554,4.122,5.087,8.183,7.601,12.186  c2.515,4.003,5.06,8.066,7.632,12.188v-24.164c0.08-0.361,0.238-0.646,0.483-0.845c0.241-0.2,0.525-0.3,0.842-0.3h8.597  c0.427,0,0.779,0.112,1.06,0.345c0.281,0.232,0.422,0.559,0.422,0.981v42.293c0,0.403-0.12,0.697-0.362,0.89  c-0.243,0.192-0.573,0.289-0.995,0.289h-9.624c-0.262,0-0.491-0.092-0.692-0.275c-0.202-0.179-0.413-0.419-0.633-0.722  c-2.678-4.425-5.32-8.799-7.936-13.123c-2.612-4.323-5.267-8.698-7.962-13.123v25.913c0,0.442-0.101,0.775-0.304,0.997  c-0.2,0.221-0.563,0.333-1.084,0.333h-8.568c-0.462,0-0.798-0.126-1.01-0.381c-0.211-0.25-0.316-0.557-0.316-0.917V150.177z"/>
    <path fill="#941F7F"
          d="M449.723,193.014c-0.202-0.342-0.393-0.695-0.573-1.055c-0.177-0.365-0.342-0.727-0.481-1.087  c-2.598-6.839-5.179-13.615-7.754-20.333c-2.574-6.718-5.158-13.494-7.756-20.332c0-0.102-0.014-0.19-0.041-0.272  c-0.032-0.081-0.046-0.16-0.046-0.24c0-0.563,0.372-0.845,1.116-0.845h9.714c0.766,0,1.284,0.383,1.568,1.145l9.229,27.481  l8.538-27.481c0.281-0.762,0.834-1.145,1.659-1.145h9.808c0.459,0,0.789,0.085,0.977,0.255c0.192,0.17,0.289,0.397,0.289,0.679  c0,0.159-0.012,0.271-0.032,0.333v0.089l-5.369,15.383l4.044,11.855l9.775-27.451c0.278-0.762,0.83-1.145,1.655-1.145h9.505  c0.461,0,0.784,0.085,0.978,0.255c0.192,0.17,0.288,0.397,0.288,0.679c0,0.159-0.009,0.271-0.032,0.333v0.089  c-1.366,3.538-2.765,7.068-4.19,10.587c-1.431,3.519-2.863,7.038-4.296,10.556c-1.444,3.521-2.87,7.048-4.287,10.573  c-1.419,3.531-2.802,7.057-4.149,10.573c-0.078,0.225-0.257,0.468-0.541,0.743c-0.284,0.271-0.624,0.408-1.027,0.408h-0.09h-7.302  c-0.442,0-0.779-0.087-1.009-0.259c-0.231-0.17-0.398-0.397-0.499-0.679l-4.765-12.552c-0.683,1.834-1.356,3.627-2.021,5.388  c-0.665,1.76-1.328,3.556-1.99,5.383c-0.101,0.284-0.218,0.577-0.349,0.889c-0.128,0.314-0.286,0.608-0.468,0.876  c-0.181,0.271-0.387,0.5-0.619,0.679c-0.229,0.184-0.499,0.275-0.798,0.275h-0.091h-7.3  C450.349,193.648,449.924,193.436,449.723,193.014"/>
    <g>
	<defs>
		<path id="SVGID_1_"
              d="M393.19,150.805c-11.395,8.88-13.438,25.377-4.558,36.769c4.997,6.414,12.535,10.094,20.679,10.094    c5.878,0,11.442-1.914,16.089-5.532c5.509-4.296,9.02-10.492,9.881-17.443c0.867-6.954-1.027-13.817-5.323-19.325    c-1.109-1.425-2.363-2.735-3.728-3.896c-0.291-0.246-0.66-0.383-1.036-0.383c-0.507,0-0.99,0.249-1.296,0.667l-14.484,19.893    l-7.256-8.874c-0.295-0.359-0.71-0.561-1.144-0.561c-0.466,0-0.896,0.228-1.188,0.625l-3.084,4.234    c-0.485,0.669-0.458,1.658,0.064,2.298l11.784,14.403c0.289,0.355,0.708,0.566,1.142,0.566c0.465,0,0.898-0.234,1.192-0.636    l15.138-20.79c4.073,7.963,1.96,17.819-5.2,23.399c-3.335,2.602-7.331,3.978-11.552,3.978c-5.854,0-11.269-2.641-14.863-7.254    c-3.088-3.959-4.44-8.891-3.823-13.887c0.621-4.991,3.141-9.444,7.1-12.53c3.338-2.601,7.332-3.974,11.555-3.974    c2.581,0,5.076,0.508,7.423,1.507c0.762,0.327,1.738,0.056,2.218-0.601l2.443-3.357c0.277-0.381,0.374-0.845,0.262-1.282    c-0.105-0.434-0.406-0.793-0.818-0.998c-3.593-1.755-7.475-2.648-11.527-2.648C403.401,145.269,397.84,147.185,393.19,150.805"/>
	</defs>
        <clipPath id="SVGID_2_">
		<use xlink:href="#SVGID_1_" overflow="visible"/>
	</clipPath>

        <linearGradient id="SVGID_3_" gradientUnits="userSpaceOnUse" x1="-93.9678" y1="812.1816" x2="-91.6204" y2="812.1816"
                        gradientTransform="matrix(-19.3247 19.2017 19.2017 19.3247 -16976.3516 -13746.0938)">
		<stop offset="0" style="stop-color:#E83762"/>
            <stop offset="1" style="stop-color:#9A1F81"/>
	</linearGradient>
        <polygon clip-path="url(#SVGID_2_)" fill="url(#SVGID_3_)" points="462.345,171.635 407.771,225.863 353.554,171.301    408.129,117.072  "/>
</g>
</svg>