<svg xmlns="http://www.w3.org/2000/svg" viewBox="0 0 644.45 215.15">
    <defs>
        <style>.b212354b-461f-4502-a52d-fd77ff8a4ca0{fill:#003d6b;}</style>
    </defs>
    <g id="bf137c09-dfa1-40b5-8dc3-d0a51e5d08fb" data-name="Layer 2">
        <g id="afc82774-a91f-4c0a-8442-16c01336e268" data-name="Layer 1">
            <path class="b212354b-461f-4502-a52d-fd77ff8a4ca0"
                  d="M413,39.5a4,4,0,0,1-2.73-.92A3.19,3.19,0,0,1,409.23,36a3.32,3.32,0,0,1,1.13-2.69,4.94,4.94,0,0,1,3.28-1,5.59,5.59,0,0,1,4,1.19,4.27,4.27,0,0,1,1.25,3.25v8.59l3.69-10h2.61l3.65,10V32.76h5.84V53.58h-5.88V53l-4.95-13.29-5,13.33v.56H413Zm1.67-2a2.62,2.62,0,0,0,0-3.13,1.75,1.75,0,0,0-1.32-.54,1.83,1.83,0,0,0-1.35.54,2.54,2.54,0,0,0,0,3.13,1.83,1.83,0,0,0,1.35.54A1.75,1.75,0,0,0,414.7,37.53Z"/>
            <path class="b212354b-461f-4502-a52d-fd77ff8a4ca0"
                  d="M451.07,53A3.36,3.36,0,0,1,450,50.31a3.13,3.13,0,0,1,1.09-2.47,4,4,0,0,1,2.71-1V43.83a5,5,0,0,0-.29-1.92A1.63,1.63,0,0,0,452.4,41a8.3,8.3,0,0,0-2.37-.25c-1,0-2.16,0-3.47.12s-2.41.17-3.25.3V39.39a7.05,7.05,0,0,1,1.84-5.18c1.23-1.24,3.3-1.86,6.19-1.86a8.49,8.49,0,0,1,1.54.13c.48.09.93.18,1.34.28a8.29,8.29,0,0,0,2.23.34,4.81,4.81,0,0,0,1.61-.26,4.92,4.92,0,0,0,1.54-1l1.58,2.45a5.39,5.39,0,0,1-3.62,1.39,9.25,9.25,0,0,1-1.51-.11c-.43-.08-.91-.19-1.44-.34a8.89,8.89,0,0,0-2.66-.42,3.71,3.71,0,0,0-3.72,4c1.43,0,2.47-.08,3.11-.08a21,21,0,0,1,4.73.42,4.42,4.42,0,0,1,2.63,1.61,5.83,5.83,0,0,1,.9,3.51v5.27q0,4.44-5.22,4.44A5,5,0,0,1,451.07,53Zm4.4-1.09a2.25,2.25,0,0,0,.52-1.58,2.11,2.11,0,0,0-.52-1.55,1.78,1.78,0,0,0-1.32-.53,1.86,1.86,0,0,0-1.35.53,2.07,2.07,0,0,0-.54,1.55,2.21,2.21,0,0,0,.54,1.58,1.81,1.81,0,0,0,1.35.56A1.73,1.73,0,0,0,455.47,51.93Z"/>
            <path class="b212354b-461f-4502-a52d-fd77ff8a4ca0"
                  d="M448.17,26.57a5.47,5.47,0,0,0,1.4-.66,5.76,5.76,0,0,0,1.29-1,3.1,3.1,0,0,1-2.43-1,3.33,3.33,0,0,1-.76-2.15,3.23,3.23,0,0,1,.92-2.3,3.68,3.68,0,0,1,2.8-1,4.37,4.37,0,0,1,3,1,3.13,3.13,0,0,1,1.07,2.41,3.85,3.85,0,0,1-.76,2.54,5.55,5.55,0,0,1-1.85,1.45c2.38-.15,4.07-.71,5.05-1.69a6.55,6.55,0,0,0,1.71-4.29h4.15a7.49,7.49,0,0,1-3.2,6,12.91,12.91,0,0,1-7.52,2h-4.91Zm4.3-3.48a2,2,0,0,0,.46-1.38,2,2,0,0,0-.46-1.37,1.58,1.58,0,0,0-1.23-.51,1.51,1.51,0,0,0-1.19.53,2.23,2.23,0,0,0,0,2.71,1.51,1.51,0,0,0,1.19.53A1.58,1.58,0,0,0,452.47,23.09Z"/>
            <path class="b212354b-461f-4502-a52d-fd77ff8a4ca0"
                  d="M472.87,44.13a3.84,3.84,0,0,1,1.29-2.9A5.42,5.42,0,0,1,478,40a5.22,5.22,0,0,1,3.35,1,3.62,3.62,0,0,1,.17,5.2,3.9,3.9,0,0,1-2.78,1v4.48h4.38a2.12,2.12,0,0,0,2.38-2.41V38.94a4.63,4.63,0,0,0-1.35-3.37,5.16,5.16,0,0,0-3.88-1.38,7.8,7.8,0,0,0-4,1,5.21,5.21,0,0,0-2.34,2.9h-2.11a7,7,0,0,1,3.24-4.18,12.32,12.32,0,0,1,6.52-1.54,13.42,13.42,0,0,1,7,1.64,5.45,5.45,0,0,1,2.71,5V49.1a4.28,4.28,0,0,1-1.23,3.45,5.69,5.69,0,0,1-3.73,1H472.87Zm6.84,1.08a2.15,2.15,0,0,0,.54-1.57,2.21,2.21,0,0,0-.54-1.58,1.77,1.77,0,0,0-1.34-.56,1.75,1.75,0,0,0-1.33.56,2.29,2.29,0,0,0-.51,1.58,2.23,2.23,0,0,0,.51,1.57,1.77,1.77,0,0,0,1.33.54A1.79,1.79,0,0,0,479.71,45.21Z"/>
            <path class="b212354b-461f-4502-a52d-fd77ff8a4ca0"
                  d="M522,32.76V53.58h-5.3a19.57,19.57,0,0,0-2.52-3.2,12.7,12.7,0,0,0-3.86-2.78v1.5A4.83,4.83,0,0,1,509,52.74,5.93,5.93,0,0,1,504.84,54a4.05,4.05,0,0,1-4.65-4.33,4.55,4.55,0,0,1,1-2.86,5,5,0,0,1,3.31-1.62V39.5a4,4,0,0,1-2.73-.92A3.19,3.19,0,0,1,500.66,36a3.32,3.32,0,0,1,1.13-2.69,4.94,4.94,0,0,1,3.28-1,5.59,5.59,0,0,1,4,1.19,4.27,4.27,0,0,1,1.25,3.25v8.92a14.38,14.38,0,0,1,3.54,1.87,10.58,10.58,0,0,1,2.3,2.13v-17Zm-17.81,19a2.56,2.56,0,0,0,.29-1.41V46.73a2.75,2.75,0,0,0-2.54,2.86,3.87,3.87,0,0,0,.39,1.83,1.13,1.13,0,0,0,1,.73A1,1,0,0,0,504.17,51.76Zm-.71-14.23a1.83,1.83,0,0,0,1.35.54,1.75,1.75,0,0,0,1.32-.54,2.62,2.62,0,0,0,0-3.13,1.75,1.75,0,0,0-1.32-.54,1.83,1.83,0,0,0-1.35.54,2.54,2.54,0,0,0,0,3.13Z"/>
            <path class="b212354b-461f-4502-a52d-fd77ff8a4ca0"
                  d="M535.49,52.7a5,5,0,0,1-1.19-3.52V32.76h5.84V47a4.3,4.3,0,0,1,2.75.84,3,3,0,0,1,1.05,2.47A3.36,3.36,0,0,1,542.79,53a5,5,0,0,1-3.3,1C537.62,54,536.28,53.54,535.49,52.7Zm5.61-.77a2.21,2.21,0,0,0,.54-1.58,2.07,2.07,0,0,0-.54-1.55,1.86,1.86,0,0,0-1.34-.53,1.8,1.8,0,0,0-1.33.53,2.11,2.11,0,0,0-.52,1.55,2.25,2.25,0,0,0,.52,1.58,1.75,1.75,0,0,0,1.33.56A1.8,1.8,0,0,0,541.1,51.93Z"/>
            <path class="b212354b-461f-4502-a52d-fd77ff8a4ca0"
                  d="M556.2,39.5a4,4,0,0,1-2.72-.92A3.2,3.2,0,0,1,552.4,36a3.35,3.35,0,0,1,1.13-2.69,5,5,0,0,1,3.29-1,5.61,5.61,0,0,1,4,1.19A4.27,4.27,0,0,1,562,36.79v8.59l3.69-10h2.62l3.65,10V32.76h5.84V53.58H572V53l-5-13.29L562,53v.56H556.2Zm1.68-2a2.66,2.66,0,0,0,0-3.13,1.77,1.77,0,0,0-1.33-.54,1.79,1.79,0,0,0-1.34.54,2.54,2.54,0,0,0,0,3.13,1.79,1.79,0,0,0,1.34.54A1.77,1.77,0,0,0,557.88,37.53Z"/>
            <path class="b212354b-461f-4502-a52d-fd77ff8a4ca0"
                  d="M587.14,46.73q0-2.86,3.53-4a6.41,6.41,0,0,1-2.78-2,5.25,5.25,0,0,1-1.1-3.37,4.54,4.54,0,0,1,1.54-3.79,6.77,6.77,0,0,1,4.3-1.22,5.78,5.78,0,0,1,3.44.9,2.89,2.89,0,0,1,1.25,2.45,3.41,3.41,0,0,1-1,2.6,4.09,4.09,0,0,1-2.92,1,6.83,6.83,0,0,1-.77-.08,1.94,1.94,0,0,0,1.17,1.71,5.45,5.45,0,0,0,2.48.55h2.23v2.45H596a2.75,2.75,0,0,0-2.26.88A3.27,3.27,0,0,0,593,47v4.67h5.07a2.53,2.53,0,0,0,2-.68,2.94,2.94,0,0,0,.61-2V32.76h5.85V49.29a5,5,0,0,1-.54,2.54,3.07,3.07,0,0,1-1.75,1.34,10.86,10.86,0,0,1-3.4.41H587.14Zm7-9.35a2.15,2.15,0,0,0,.54-1.57,2.21,2.21,0,0,0-.54-1.58,1.9,1.9,0,0,0-2.69,0,2.21,2.21,0,0,0-.54,1.58,2.15,2.15,0,0,0,.54,1.57,1.95,1.95,0,0,0,2.69,0Z"/>
            <path class="b212354b-461f-4502-a52d-fd77ff8a4ca0"
                  d="M598.66,27.81a3.88,3.88,0,0,1-1.11-3,3.62,3.62,0,0,1,1.34-3A12.51,12.51,0,0,1,602.7,20l1.34-.41a2.34,2.34,0,0,0,1.15-.77,1.71,1.71,0,0,0,.39-1h3.26c-.05,1.71-.73,2.78-2,3.2l-3.62,1.17a8.37,8.37,0,0,0-1,.45q-.48.27-.45.45a2.39,2.39,0,0,1,.85-.19,1.49,1.49,0,0,1,.38,0,2.44,2.44,0,0,1,1.73.92,3.15,3.15,0,0,1,.58,1.94A2.73,2.73,0,0,1,604.19,28a4,4,0,0,1-2.61.85A4.12,4.12,0,0,1,598.66,27.81Zm4.27-.92a1.81,1.81,0,0,0,.42-1.28,1.65,1.65,0,0,0-.42-1.19,1.49,1.49,0,0,0-1.08-.43,1.37,1.37,0,0,0-1,.43,1.68,1.68,0,0,0-.4,1.19,1.85,1.85,0,0,0,.4,1.28,1.31,1.31,0,0,0,1,.45A1.43,1.43,0,0,0,602.93,26.89Z"/>
            <path class="b212354b-461f-4502-a52d-fd77ff8a4ca0"
                  d="M463.18,115.29q-8.79,7-25.11,7H417.21V159.5H396.42V60.92h43q14.86,0,23.71,7.42t8.84,23Q472,108.27,463.18,115.29Zm-16-34.53q-4-3.2-11.14-3.19H417.21v28.22h18.86q7.17,0,11.14-3.44t4-10.93Q451.19,83.95,447.21,80.76Z"/>
            <path class="b212354b-461f-4502-a52d-fd77ff8a4ca0"
                  d="M511.76,102.61A31,31,0,0,0,519.4,101q4.13-1.69,4.12-5.27c0-2.91-1-4.91-3.16-6s-5.2-1.65-9.28-1.65q-6.87,0-9.73,3.25a13.24,13.24,0,0,0-2.72,6.5H480.19q.6-9.3,5.39-15.28,7.6-9.36,26.14-9.37a47.78,47.78,0,0,1,21.42,4.62q9.38,4.62,9.37,17.43v32.51q0,3.39.13,8.19.21,3.65,1.14,4.95A6.89,6.89,0,0,0,546.6,143v2.73H525.8a19.89,19.89,0,0,1-1.2-4q-.35-1.89-.54-4.29a38.94,38.94,0,0,1-9.18,7.09,28.48,28.48,0,0,1-14,3.44q-10,0-16.5-5.49t-6.51-15.57q0-13.08,10.47-18.93,5.74-3.18,16.9-4.55Zm11.69,8.65a21.28,21.28,0,0,1-3.7,1.79,32.74,32.74,0,0,1-5.14,1.27l-4.35.78a29.43,29.43,0,0,0-8.79,2.53A8.42,8.42,0,0,0,497,125.5c0,3.17.92,5.45,2.76,6.86a10.69,10.69,0,0,0,6.71,2.11A20.43,20.43,0,0,0,518,131q5.28-3.51,5.48-12.81Z"/>
            <path class="b212354b-461f-4502-a52d-fd77ff8a4ca0" d="M606.32,72.78l-23.77,86.78H563.06l5.36-24.81-19-62h20.81l9,26.26L586,72.73Z"/>
            <path class="b212354b-461f-4502-a52d-fd77ff8a4ca0" d="M637.45,7V208.15H7V7H637.45m7-7H0V215.15H644.45V0Z"/>
            <path class="b212354b-461f-4502-a52d-fd77ff8a4ca0"
                  d="M173.65,98.23q-7.83,0-11.38,5.93a27.31,27.31,0,0,0-3.55,14.3q0,8,3.55,13.41t11.29,5.36q8.48,0,11.63-6.37a31.47,31.47,0,0,0,3.16-14.19q0-7-2.28-11.47Q182.47,98.23,173.65,98.23Z"/>
            <path class="b212354b-461f-4502-a52d-fd77ff8a4ca0"
                  d="M313.4,98.52q-9,0-12.32,8.8a34.18,34.18,0,0,0-1.78,12,24.8,24.8,0,0,0,1.78,9.93q3.36,7.83,12.32,7.82a12.4,12.4,0,0,0,10.07-5q4-5,4-14.86a27.14,27.14,0,0,0-1.78-10.36Q322.35,98.51,313.4,98.52Z"/>
            <path class="b212354b-461f-4502-a52d-fd77ff8a4ca0"
                  d="M36.68,60.92v98.64h351V60.92Zm65.8,46.57q-5.13,6-15.7,6h-22v29.25H55.25V86.64h9.54v18.94H83.64q6.38,0,10.35-2.68t4-9.47q0-7.64-5.72-10.36a20.67,20.67,0,0,0-8.61-1.46H55.25V73.55H86.76q9.36,0,15.1,5.21t5.75,14.62A21.06,21.06,0,0,1,102.48,107.49Zm42.4-7.14c-.51-.09-1-.15-1.41-.19s-.9,0-1.41,0q-6.52,0-10,4.12a14.25,14.25,0,0,0-3.5,9.49v29H119.9V92.3h8.2V101c.67-1.69,2.32-3.76,4.94-6.19a12.93,12.93,0,0,1,9.06-3.65c.16,0,.43,0,.82,0l2,.18Zm46.48,36.23q-6,7.95-18.61,7.95-10.53,0-16.72-7t-6.18-18.9q0-12.7,6.52-20.23t17.52-7.53a23.22,23.22,0,0,1,16.66,6.49q6.81,6.49,6.81,19.11Q197.36,128.62,191.36,136.58ZM278,142.74h-9v-35q0-5-2.57-6.92a10.24,10.24,0,0,0-6.25-1.89,12.53,12.53,0,0,0-8.75,3.35q-3.67,3.35-3.67,11.16v29.34h-8.78V109.82q0-5.13-1.24-7.49c-1.32-2.35-3.76-3.53-7.34-3.53a12.75,12.75,0,0,0-8.89,3.72q-4,3.72-4,13.47v26.75h-8.63V92.3h8.54v7.16A28.39,28.39,0,0,1,223,94a17,17,0,0,1,9.68-2.87q6.15,0,9.88,3a15.45,15.45,0,0,1,3.84,5,18.55,18.55,0,0,1,6.76-6,19.15,19.15,0,0,1,8.72-2q10.36,0,14.1,7.35,2,3.95,2,10.64ZM327.55,140a20.18,20.18,0,0,1-13,4.48,18,18,0,0,1-9.77-2.5,22.46,22.46,0,0,1-5.16-4.85v18.22H291V92.53h8.44v6.69a20.8,20.8,0,0,1,5.68-5.32,18.54,18.54,0,0,1,10.28-2.83,19.52,19.52,0,0,1,14.86,6.57q6.11,6.57,6.1,18.77Q336.36,132.9,327.55,140ZM366,99.22h-8.2v32.92c0,1.76.61,2.94,1.82,3.54a8,8,0,0,0,3.36.51l1.34,0q.72,0,1.68-.15v6.73a19.2,19.2,0,0,1-3.09.61,29,29,0,0,1-3.48.19q-6,0-8.2-3a13.29,13.29,0,0,1-2.15-7.89V99.22h-7V92.3h7V78.22h8.72V92.3H366Z"/>
        </g>
    </g>
</svg>