<svg height="28" viewBox="0 0 100 28" width="100" xmlns="http://www.w3.org/2000/svg" xmlns:xlink="http://www.w3.org/1999/xlink"><linearGradient id="a" x1="50%" x2="50%" y1="98.001036%" y2="1.873067%"><stop offset="0" stop-color="#137ece"/><stop offset="1" stop-color="#288bd5"/></linearGradient><g fill="none" fill-rule="evenodd"><path d="m52.0969697 20.5968123c2.5909091 0 4.1181818-1.1163666 5.0454545-2.341647l-1.8818181-1.7698495c-.7363637 1.0346812-1.7454546 1.5792503-3.0272728 1.5792503-2.3727272 0-3.9818181-1.8243064-3.9818181-4.383781s1.6090909-4.35655251 3.9818181-4.35655251c1.2818182 0 2.2909091.49011216 3.0272728 1.52479341l1.8818181-1.71539259c-.9272727-1.25250885-2.4545454-2.34164699-5.0454545-2.34164699-3.9818182 0-6.7909091 2.91344451-6.7909091 6.88879868 0 3.9753542 2.8090909 6.9160272 6.7909091 6.9160272zm10.0666667-.3267415v-8.9581611c.5727272-.9529959 2.1818181-1.76984949 3.4090909-1.76984949.3545454 0 .6272727.02722846.8727272.08168536v-2.83175915c-1.690909 0-3.2727272.98022432-4.2818181 2.23273318v-1.90599174h-2.8636364v13.15134294zm7.6666666-14.75782169c.9818182 0 1.7727273-.78962514 1.7727273-1.76984946 0-.98022433-.7909091-1.76984947-1.7727273-1.76984947s-1.7727272.78962514-1.7727272 1.76984947c0 .98022432.790909 1.76984946 1.7727272 1.76984946zm1.4181818 14.75782169v-13.15134294h-2.8636363v13.15134294zm7.8575758.3267415c3.5454546 0 5.4818182-1.7698495 5.4818182-4.1114965 0-5.227863-7.9636364-3.485242-7.9636364-5.7996605 0-.92576746.9272728-1.63370725 2.4272728-1.63370725 1.6636363 0 3.1090909.70793979 3.9 1.57925025l1.2-2.0149055c-1.1727273-1.03468123-2.8636364-1.82430638-5.1-1.82430638-3.3272728 0-5.1818182 1.82430638-5.1818182 3.97535418 0 5.0644923 7.9636363 3.2129575 7.9636363 5.7996606 0 1.0346812-.9 1.742621-2.6181818 1.742621-1.6909091 0-3.5181818-.8713105-4.4454545-1.8243064l-1.3090909 2.042134c1.3636363 1.3341942 3.3818181 2.0693625 5.6454545 2.0693625zm15.0575758 0c-1.6636364 0-3.1363637-.7623967-4.2272728-2.1510478v6.8343418h-2.8636363v-18.16137844h2.8636363v1.79707793c.9818182-1.30696577 2.5090909-2.12381937 4.2272728-2.12381937 3.4090909 0 5.8363636 2.55947462 5.8363636 6.88879868 0 4.3293241-2.4272727 6.9160272-5.8363636 6.9160272zm-.8454546-2.5322462c2.2636364 0 3.7363637-1.8243064 3.7363637-4.383781s-1.4727273-4.35655251-3.7363637-4.35655251c-1.3363636 0-2.7272727.76239671-3.3818182 1.74262101v5.2006346c.6272728.9802243 2.0454546 1.7970779 3.3818182 1.7970779z" fill="#363636"/><path d="m32.3982399.11651846 1.8892422 19.59684974-11.1706667 1.2791503-4.1816481 6.8049415-5.4273519-5.7039415-11.49775783 1.3184545-1.88924218-19.59684969z" fill="url(#a)" transform="matrix(.99999048 .00436331 -.00436331 .99999048 .061062 -.074934)"/></g></svg>